<?xml version="1.0" encoding="UTF-8"?>
<svg id="Layer_1" data-name="Layer 1" xmlns="http://www.w3.org/2000/svg" xmlns:xlink="http://www.w3.org/1999/xlink" viewBox="0 0 1000 1000">
  <defs>
    <style>
      .cls-1 {
        fill: none;
      }

      .cls-2 {
        fill: #232323;
      }

      .cls-3 {
        opacity: .45;
      }

      .cls-4 {
        fill: #ff3f1a;
      }

      .cls-5 {
        clip-path: url(#clippath);
      }
    </style>
    <clipPath id="clippath">
      <rect class="cls-1" x="0" width="1000" height="1000"/>
    </clipPath>
  </defs>
  <g class="cls-3">
    <g class="cls-5">
      <image width="3000" height="1995" transform="translate(-274.38 -14.96) scale(.52)" xlink:href="C:\Users\Maria\Downloads\maico-amorim-SJWPKMb9u-k-unsplash.jpg"/>
    </g>
  </g>
  <g>
    <path class="cls-4" d="M747.95,432.6c0,.43-.05.86-.13,1.27h0s-.15.61-.15.61l-35.44,139.24h-61.15l-30.32-25.87-3.17-2.7c-.91-1.31-1.43-2.89-1.43-4.59,0-2.51,1.15-4.75,2.93-6.23.03-.03.08-.06.12-.09l.5-.38s.03-.01.05-.03c1.28-.84,2.81-1.34,4.47-1.34h41.01l16.71-65.64-88.39,65.64-55.52,41.23h-76.29c-3.49,0-6.31-2.82-6.31-6.31,0-1.96.89-3.71,2.3-4.87.03-.03.06-.05.09-.07l.39-.3s.03-.01.04-.03l182.93-135.85h100.46c3.49,0,6.31,2.82,6.31,6.31Z"/>
    <path class="cls-2" d="M607.23,432.67c0,1.88-.81,3.57-2.11,4.74l-.98.73-38.65,28.7-50.99,37.88-37.4,27.76-54.53,40.51c-.69.46-1.52.73-2.42.73h-74.86c-3.49,0-6.3-2.82-6.3-6.3,0-1.98.9-3.72,2.3-4.88.02-.02.06-.04.08-.06l.4-.29s.02-.02.04-.04l182.93-135.85h76.12c3.53,0,6.39,2.86,6.39,6.39Z"/>
    <path class="cls-2" d="M423.19,483.73c0,1.2-.52,2.28-1.34,3.02l-.63.47-24.66,18.31-32.53,24.17-23.86,17.71-34.79,25.84c-.44.29-.97.47-1.54.47h-47.76c-2.22,0-4.02-1.8-4.02-4.02,0-1.26.57-2.37,1.46-3.12.01-.01.04-.03.05-.04l.25-.19s.01-.01.03-.03l116.71-86.67h48.56c2.25,0,4.07,1.82,4.07,4.07Z"/>
  </g>
</svg>