<?xml version="1.0" encoding="UTF-8"?>
<svg id="Layer_1" data-name="Layer 1" xmlns="http://www.w3.org/2000/svg" viewBox="0 0 3000 800">
  <defs>
    <style>
      .cls-1 {
        fill: #fff;
      }

      .cls-2 {
        fill: #232323;
      }

      .cls-3 {
        fill: #ff3f1a;
      }
    </style>
  </defs>
  <rect class="cls-3" y="0" width="3000" height="800"/>
  <g>
    <path class="cls-1" d="M1250.38,265.85c0,.74-.08,1.46-.22,2.17h0s-.26,1.05-.26,1.05l-60.59,238.04h-104.55l-51.84-44.23-5.41-4.61c-1.55-2.23-2.45-4.94-2.45-7.85,0-4.29,1.96-8.12,5.02-10.65.06-.06.13-.11.2-.15l.86-.65s.06-.02.09-.06c2.19-1.44,4.81-2.29,7.63-2.29h70.11l28.57-112.22-151.12,112.22-94.91,70.49h-130.42c-5.96,0-10.79-4.83-10.79-10.79,0-3.35,1.53-6.35,3.93-8.33.04-.04.1-.09.15-.12l.67-.51s.04-.02.07-.04l312.74-232.26h171.75c5.96,0,10.79,4.83,10.79,10.79Z"/>
    <path class="cls-2" d="M1009.8,265.97c0,3.21-1.39,6.1-3.6,8.1l-1.68,1.25-66.08,49.06-87.17,64.76-63.94,47.46-93.23,69.26c-1.18.78-2.6,1.25-4.14,1.25h-127.99c-5.96,0-10.78-4.82-10.78-10.78,0-3.39,1.53-6.35,3.93-8.35.04-.04.11-.07.14-.11l.68-.5s.04-.04.07-.07l312.74-232.25h130.13c6.03,0,10.92,4.89,10.92,10.92Z"/>
    <path class="cls-2" d="M695.15,353.27c0,2.05-.89,3.89-2.3,5.17l-1.07.8-42.16,31.3-55.61,41.32-40.79,30.28-59.48,44.18c-.75.5-1.66.8-2.64.8h-81.65c-3.8,0-6.88-3.07-6.88-6.87,0-2.16.98-4.05,2.5-5.33.02-.02.07-.05.09-.07l.43-.32s.02-.02.05-.05l199.52-148.17h83.02c3.85,0,6.97,3.12,6.97,6.97Z"/>
    <g>
      <path class="cls-1" d="M1537.07,140.59s-.04-.07-.04-.11l-.39-.93c0-.07-.07-.14-.11-.21-1.57-3.39-4.6-6.1-8.53-7.14-2.71-.71-5.39-.54-7.78.36l-5.53,3.85-52.49,36.61-3,11.17-11.24,42.17-.07.18c-.14.68-.29,1.32-.46,1.93l-5.03,18.7-7.89,29.26h-101.44c-33.18,0-61.34,22.12-70.08,55.34l-32.26,119.89c-8.78,33.22,7.35,55.34,40.57,55.34h170.62l86.67-322.8,9.49-35.25c.71-2.57-.21-5.99-1.03-8.35ZM1391.21,437.81h-73.79c-8.28,0-12.45-5.53-10.13-13.81l17.52-64.58c2.28-8.28,9.21-13.84,17.48-13.84h73.79l-24.87,92.23Z"/>
      <path class="cls-1" d="M1699.7,276.42c33.2,0,49.34,22.13,40.58,55.33l-47.03,175.22h-166c-33.2,0-49.34-22.13-40.58-55.33l10.61-38.74c8.76-33.2,36.43-53.49,69.63-53.49h96.83c2.31-8.3-1.84-13.83-10.14-13.83h-124.5l18.45-69.17h152.17ZM1648.98,414.76h-69.17c-19.37,0-25.82,23.05-6.45,23.05h69.17l6.45-23.05Z"/>
      <path class="cls-1" d="M1957.92,276.42h-184.43c4.6,11.06,5.53,30.44,1.86,44.28l-47.46,177.3-41.25,153.25c-.68,2.6.25,5.99,1.03,8.31.04.07.04.11.04.14l.39.93c0,.07.07.14.11.25,1.57,3.35,4.6,6.07,8.53,7.1,2.68.71,5.39.54,7.78-.36l5.49-3.85,52.52-36.61,11.63-43.46,20.55-76.71h101.44c33.18,0,61.3-22.12,70.08-55.34l32.29-119.89c8.74-33.22-7.39-55.34-40.6-55.34ZM1921.96,359.41l-17.52,64.58c-2.28,8.28-9.21,13.81-17.52,13.81h-73.79l24.91-92.2h73.79c8.31,0,12.45,5.53,10.13,13.81Z"/>
      <path class="cls-1" d="M2048.33,506.98c-33.2,0-49.34-22.13-40.58-55.33l28.59-106.06h-23.06l18.45-69.17h23.06l14.76-55.33h69.17l-14.76,55.33h55.33l-18.45,69.17h-55.33l-21.21,78.39c-2.31,8.3,1.84,13.83,10.14,13.83h78.39l-18.45,69.17h-106.06Z"/>
      <path class="cls-1" d="M2231.86,320.69c3.69-13.83,2.77-33.2-1.84-44.27h83l-61.79,230.56h-69.17l49.8-186.29ZM2259.99,216.48h69.17l-12.45,46.11h-69.17l12.45-46.11Z"/>
      <path class="cls-1" d="M2348.07,314.24c-.92-12.91-44.11-29.51-52.41-37.81h122.96l14.29,142.02,90.38-142.02h73.78l-146.63,230.56h-82.08l-20.29-192.75Z"/>
      <path class="cls-1" d="M1447.9,226.54c-.14.68-.29,1.32-.46,1.93l-5.03,18.7,5.49-20.62Z"/>
    </g>
  </g>
</svg>