<?xml version="1.0" encoding="UTF-8"?>
<svg id="Layer_1" data-name="Layer 1" xmlns="http://www.w3.org/2000/svg" viewBox="0 0 1100 1100">
  <defs>
    <style>
      .cls-1 {
        fill: #fff;
      }

      .cls-2 {
        fill: #232323;
      }

      .cls-3 {
        fill: #ff3f1a;
      }
    </style>
  </defs>
  <rect class="cls-2" width="1100" height="1100"/>
  <g>
    <path class="cls-1" d="M973.9,434.77c0,.74-.08,1.46-.22,2.17h0s-.26,1.05-.26,1.05l-60.59,238.04h-104.55l-51.84-44.23-5.41-4.61c-1.55-2.23-2.45-4.94-2.45-7.85,0-4.29,1.96-8.12,5.02-10.65.06-.06.13-.11.2-.15l.86-.65s.06-.02.09-.06c2.19-1.44,4.81-2.29,7.63-2.29h70.11l28.57-112.22-151.12,112.22-94.91,70.49h-130.42c-5.96,0-10.79-4.83-10.79-10.79,0-3.35,1.53-6.35,3.93-8.33.04-.04.1-.09.15-.12l.67-.51s.04-.02.07-.04l312.74-232.26h171.75c5.96,0,10.79,4.83,10.79,10.79Z"/>
    <path class="cls-3" d="M733.33,434.89c0,3.21-1.39,6.1-3.6,8.1l-1.68,1.25-66.08,49.06-87.17,64.76-63.94,47.46-93.23,69.26c-1.18.78-2.6,1.25-4.14,1.25h-127.99c-5.96,0-10.78-4.82-10.78-10.78,0-3.39,1.53-6.35,3.93-8.35.04-.04.11-.07.14-.11l.68-.5s.04-.04.07-.07l312.74-232.25h130.13c6.03,0,10.92,4.89,10.92,10.92Z"/>
    <path class="cls-3" d="M418.68,522.19c0,2.05-.89,3.89-2.3,5.17l-1.07.8-42.16,31.3-55.61,41.32-40.79,30.28-59.48,44.18c-.75.5-1.66.8-2.64.8h-81.65c-3.8,0-6.88-3.07-6.88-6.87,0-2.16.98-4.05,2.5-5.33.02-.02.07-.05.09-.07l.43-.32s.02-.02.05-.05l199.52-148.17h83.02c3.85,0,6.97,3.12,6.97,6.97Z"/>
  </g>
</svg>