<?xml version="1.0" encoding="UTF-8"?>
<svg id="Layer_1" data-name="Layer 1" xmlns="http://www.w3.org/2000/svg" viewBox="0 0 2000 530">
  <defs>
    <style>
      .cls-1 {
        fill: #fff;
      }

      .cls-2 {
        fill: #ff3f1a;
      }
    </style>
  </defs>
  <path class="cls-1" d="M833.71,175.51c0,.49-.05.98-.15,1.44h0s-.18.7-.18.7l-40.39,158.7h-69.7l-34.56-29.49-3.61-3.07c-1.03-1.49-1.64-3.29-1.64-5.24,0-2.86,1.31-5.41,3.34-7.1.04-.04.09-.07.13-.1l.57-.43s.04-.01.06-.04c1.46-.96,3.2-1.53,5.09-1.53h46.74l19.05-74.81-100.74,74.81-63.28,46.99h-86.95c-3.97,0-7.19-3.22-7.19-7.19,0-2.24,1.02-4.23,2.62-5.55.03-.03.07-.06.1-.08l.45-.34s.03-.01.04-.03l208.49-154.84h114.5c3.97,0,7.19,3.22,7.19,7.19Z"/>
  <path class="cls-2" d="M673.32,175.59c0,2.14-.93,4.07-2.4,5.4l-1.12.83-44.05,32.71-58.11,43.17-42.63,31.64-62.16,46.17c-.79.52-1.74.83-2.76.83h-85.32c-3.97,0-7.18-3.21-7.18-7.18,0-2.26,1.02-4.23,2.62-5.57.02-.02.07-.05.1-.07l.45-.33s.02-.02.05-.05l208.49-154.83h86.75c4.02,0,7.28,3.26,7.28,7.28Z"/>
  <path class="cls-2" d="M463.55,233.78c0,1.37-.59,2.59-1.53,3.44l-.71.53-28.11,20.87-37.07,27.54-27.19,20.18-39.65,29.46c-.5.33-1.11.53-1.76.53h-54.43c-2.53,0-4.58-2.05-4.58-4.58,0-1.44.65-2.7,1.67-3.55.02-.02.05-.03.06-.05l.29-.21s.02-.02.03-.03l133.02-98.78h55.35c2.56,0,4.64,2.08,4.64,4.64Z"/>
  <g>
    <path class="cls-1" d="M1024.83,92s-.02-.05-.02-.07l-.26-.62s-.05-.1-.07-.14c-1.05-2.26-3.07-4.07-5.69-4.76-1.81-.48-3.59-.36-5.19.24l-3.69,2.57-34.99,24.41-2,7.45-7.49,28.12-.05.12c-.1.45-.19.88-.31,1.28l-3.35,12.46-5.26,19.51h-67.63c-22.12,0-40.89,14.75-46.72,36.89l-21.5,79.92c-5.85,22.15,4.9,36.89,27.05,36.89h113.75l57.78-215.2,6.33-23.5c.48-1.71-.14-4-.69-5.57ZM927.59,290.14h-49.19c-5.52,0-8.3-3.69-6.76-9.21l11.68-43.05c1.52-5.52,6.14-9.23,11.66-9.23h49.19l-16.58,61.49Z"/>
    <path class="cls-1" d="M1133.25,182.56c22.13,0,32.89,14.76,27.05,36.89l-31.36,116.82h-110.67c-22.13,0-32.89-14.75-27.05-36.89l7.07-25.82c5.84-22.13,24.28-35.66,46.42-35.66h64.55c1.54-5.53-1.23-9.22-6.76-9.22h-83l12.3-46.11h101.45ZM1099.44,274.78h-46.11c-12.91,0-17.21,15.37-4.3,15.37h46.11l4.3-15.37Z"/>
    <path class="cls-1" d="M1305.4,182.55h-122.96c3.07,7.37,3.69,20.29,1.24,29.52l-31.64,118.2-27.5,102.17c-.45,1.74.17,4,.69,5.54.02.05.02.07.02.1l.26.62s.05.1.07.17c1.05,2.24,3.07,4.04,5.69,4.73,1.78.48,3.59.36,5.19-.24l3.66-2.57,35.01-24.41,7.75-28.97,13.7-51.14h67.63c22.12,0,40.87-14.75,46.72-36.89l21.53-79.92c5.83-22.15-4.92-36.89-27.07-36.89ZM1281.43,237.88l-11.68,43.05c-1.52,5.52-6.14,9.21-11.68,9.21h-49.19l16.6-61.47h49.19c5.54,0,8.3,3.69,6.76,9.21Z"/>
    <path class="cls-1" d="M1365.67,336.26c-22.13,0-32.89-14.75-27.05-36.89l19.06-70.7h-15.37l12.3-46.11h15.37l9.84-36.89h46.11l-9.84,36.89h36.89l-12.3,46.11h-36.89l-14.14,52.26c-1.54,5.53,1.23,9.22,6.76,9.22h52.26l-12.3,46.11h-70.7Z"/>
    <path class="cls-1" d="M1488.03,212.07c2.46-9.22,1.84-22.13-1.23-29.51h55.34l-41.19,153.7h-46.11l33.2-124.19ZM1506.78,142.59h46.11l-8.3,30.74h-46.11l8.3-30.74Z"/>
    <path class="cls-1" d="M1565.5,207.76c-.61-8.61-29.41-19.67-34.94-25.21h81.97l9.53,94.68,60.25-94.68h49.19l-97.76,153.7h-54.72l-13.53-128.5Z"/>
    <path class="cls-1" d="M965.39,149.3c-.1.45-.19.88-.31,1.28l-3.35,12.46,3.66-13.75Z"/>
  </g>
</svg>