<?xml version="1.0" encoding="UTF-8"?>
<svg id="Layer_1" data-name="Layer 1" xmlns="http://www.w3.org/2000/svg" viewBox="0 0 440 440">
  <defs>
    <style>
      .cls-1 {
        fill: #fff;
      }

      .cls-2 {
        fill: #232323;
      }

      .cls-3 {
        fill: #ff3f1a;
      }
    </style>
  </defs>
  <rect class="cls-2" width="440" height="440"/>
  <g>
    <path class="cls-1" d="M389.56,173.91c0,.29-.03.59-.09.87h0s-.11.42-.11.42l-24.24,95.22h-41.82l-20.73-17.69-2.16-1.84c-.62-.89-.98-1.98-.98-3.14,0-1.72.78-3.25,2.01-4.26.02-.02.05-.04.08-.06l.34-.26s.02,0,.04-.02c.88-.58,1.92-.92,3.05-.92h28.04l11.43-44.89-60.45,44.89-37.97,28.2h-52.17c-2.38,0-4.32-1.93-4.32-4.32,0-1.34.61-2.54,1.57-3.33.02-.02.04-.04.06-.05l.27-.2s.02,0,.03-.02l125.09-92.9h68.7c2.38,0,4.32,1.93,4.32,4.32Z"/>
    <path class="cls-3" d="M293.33,173.96c0,1.28-.56,2.44-1.44,3.24l-.67.5-26.43,19.62-34.87,25.9-25.58,18.98-37.29,27.7c-.47.31-1.04.5-1.66.5h-51.19c-2.38,0-4.31-1.93-4.31-4.31,0-1.36.61-2.54,1.57-3.34.01-.01.04-.03.06-.04l.27-.2s.01-.01.03-.03l125.1-92.9h52.05c2.41,0,4.37,1.96,4.37,4.37Z"/>
    <path class="cls-3" d="M167.47,208.87c0,.82-.36,1.56-.92,2.07l-.43.32-16.86,12.52-22.24,16.53-16.32,12.11-23.79,17.67c-.3.2-.66.32-1.06.32h-32.66c-1.52,0-2.75-1.23-2.75-2.75,0-.87.39-1.62,1-2.13,0,0,.03-.02.04-.03l.17-.13s0,0,.02-.02l79.81-59.27h33.21c1.54,0,2.79,1.25,2.79,2.79Z"/>
  </g>
</svg>